<svg width="81" height="100" viewBox="0 0 81 100" fill="none" xmlns="http://www.w3.org/2000/svg">
<path d="M70.3749 30.3764L69.1697 31.4766L63.0315 26.3433L62.2737 25.7086C62.5342 24.6179 62.7297 23.5126 62.8593 22.3986C63.0778 20.4001 62.8348 19.6684 62.8348 19.6684C62.8348 19.6684 58.6384 11.6411 50.6002 9.61299C42.5621 7.58486 35.0658 12.6619 35.0658 12.6619C35.0658 12.6619 34.5054 13.1909 33.7515 15.0543C33.3356 16.0958 32.9844 17.1619 32.6997 18.2467L23.8914 20.0522L23.3511 18.5117L31.0245 16.7524C31.8207 13.5905 32.779 11.879 33.2056 11.274C33.264 11.1822 33.3284 11.0944 33.3984 11.0111C34.9962 9.56659 37.8178 8.30942 41.0414 7.61295C44.2049 6.89387 47.4845 6.85242 50.6651 7.49133L51.0816 7.59642C57.4784 9.21042 63.5882 14.9383 65.0339 18.9985C65.0339 18.9985 65.4615 21.0913 64.4068 25.1752L70.3254 30.3639L70.3749 30.3764Z" fill="white"/>
<path d="M69.1076 31.7248C69.0715 31.7229 69.0361 31.714 69.0034 31.6985L62.1037 25.9244C62.0693 25.8939 62.0433 25.8549 62.0284 25.8114C62.0135 25.7678 62.0101 25.7211 62.0186 25.6759C62.2806 24.596 62.4753 23.5009 62.6017 22.3969C62.7423 21.5357 62.7389 20.6571 62.5918 19.7971C62.3397 19.3322 58.1621 11.8165 50.5504 9.896C42.9387 7.97547 35.6951 12.6147 35.2592 12.9007C34.7232 13.5887 34.3043 14.3606 34.0194 15.1852C33.6127 16.219 33.2657 17.2754 32.9802 18.3491C32.9682 18.394 32.9438 18.4347 32.9097 18.4662C32.8756 18.4978 32.8332 18.5191 32.7876 18.5275L23.9829 20.3392C23.923 20.3504 23.8611 20.3402 23.8079 20.3103C23.7547 20.2805 23.7136 20.233 23.6918 20.176L23.1528 18.6305C23.1388 18.5874 23.1372 18.5413 23.1483 18.4974C23.1594 18.4535 23.1826 18.4136 23.2153 18.3823C23.2531 18.3393 23.3051 18.3112 23.3618 18.3031L30.8788 16.5572C31.2945 14.6438 32.0298 12.8143 33.0536 11.1458C33.1793 10.9611 33.2551 10.8694 33.2626 10.8607C33.2636 10.8504 33.2661 10.8404 33.2701 10.8309C34.9151 9.34547 37.7429 8.08458 41.0273 7.37707C44.2269 6.64779 47.5448 6.60683 50.7614 7.25689L51.1779 7.36199C57.664 8.99851 63.8245 14.7762 65.3122 18.9208L65.3047 18.9506C65.3244 19.0401 65.7235 21.0993 64.7112 25.0988L70.5034 30.2029C70.5482 30.238 70.5804 30.2869 70.5949 30.3421C70.6071 30.3853 70.6078 30.431 70.5968 30.4746C70.5859 30.5181 70.5636 30.5581 70.5324 30.5903L69.3259 31.6954C69.2942 31.7166 69.258 31.7303 69.2201 31.7354C69.1823 31.7405 69.1438 31.7369 69.1076 31.7248ZM23.7281 18.6912L24.1031 19.7572L32.5268 18.0552C32.8086 17.0157 33.1489 15.9929 33.546 14.9918C34.3187 13.0751 34.899 12.53 34.9263 12.5052L34.9338 12.4754C35.0108 12.421 42.6137 7.36028 50.6518 9.38841C58.69 11.4165 62.9819 19.4837 63.0251 19.5633L63.0424 19.5993C63.0349 19.6291 63.3026 20.4093 63.0803 22.4437C62.9572 23.512 62.7713 24.5721 62.5235 25.6185L69.1372 31.1463L69.9722 30.3856L64.2617 25.355C64.2279 25.3237 64.2033 25.2838 64.1903 25.2397C64.1772 25.1955 64.1764 25.1486 64.1877 25.104C65.1725 21.2981 64.8502 19.2477 64.8159 19.049C63.3701 14.9888 57.3617 9.42377 51.0455 7.82483L50.6389 7.72223C47.4928 7.083 44.2467 7.12242 41.117 7.83785C37.9715 8.51708 35.1648 9.75691 33.5981 11.1618C33.5906 11.1916 33.5197 11.2634 33.4339 11.3949C33.0471 11.9677 32.0603 13.6456 31.2889 16.7927C31.2783 16.8382 31.2548 16.8798 31.2214 16.9126C31.1879 16.9453 31.1458 16.9677 31.1 16.9773L23.7281 18.6912Z" fill="#5A5A5C"/>
<path d="M26.9266 17.1332C28.0028 17.4048 29.0953 16.7515 29.3666 15.6742C29.6378 14.5968 28.9853 13.5033 27.909 13.2317C26.8327 12.9601 25.7403 13.6134 25.469 14.6907C25.1977 15.7681 25.8503 16.8616 26.9266 17.1332Z" fill="white"/>
<path d="M26.8437 17.4608C26.3936 17.3473 25.9872 17.1026 25.6759 16.7578C25.3646 16.413 25.1625 15.9836 25.0951 15.5238C25.0276 15.064 25.0979 14.5945 25.297 14.1747C25.4961 13.7549 25.8151 13.4037 26.2137 13.1654C26.6122 12.927 27.0724 12.8124 27.5361 12.8359C27.9997 12.8593 28.446 13.0199 28.8185 13.2973C29.191 13.5747 29.4729 13.9564 29.6286 14.3942C29.7844 14.832 29.807 15.3061 29.6935 15.7568C29.5401 16.3603 29.1542 16.8784 28.6201 17.1978C28.086 17.5172 27.4473 17.6117 26.8437 17.4608ZM27.8274 13.5544C27.5057 13.4732 27.1672 13.4893 26.8547 13.6008C26.5422 13.7122 26.2697 13.9138 26.0717 14.1803C25.8736 14.4467 25.759 14.766 25.7422 15.0976C25.7255 15.4293 25.8073 15.7585 25.9775 16.0435C26.1476 16.3286 26.3984 16.5568 26.698 16.6992C26.9977 16.8417 27.3329 16.8919 27.6611 16.8437C27.9893 16.7955 28.2959 16.6509 28.542 16.4282C28.7882 16.2056 28.9628 15.9149 29.0439 15.5929C29.1526 15.1611 29.0856 14.7037 28.8574 14.3214C28.6293 13.9391 28.2588 13.6632 27.8274 13.5544Z" fill="#5A5A5C"/>
<path d="M26.7167 13.6488C26.8407 13.6042 26.9731 13.5879 27.1042 13.6011C27.2354 13.6142 27.3619 13.6566 27.4745 13.725C27.5872 13.7934 27.6832 13.8861 27.7555 13.9964C27.8278 14.1067 27.8745 14.2318 27.8924 14.3624C28.0659 15.0767 26.3206 15.7872 26.3206 15.7872C26.3206 15.7872 27.4561 16.7441 28.4835 15.8894C29.5109 15.0348 28.695 13.6253 28.695 13.6253C28.695 13.6253 27.7774 12.8922 26.9172 13.2295C26.057 13.5668 26.7167 13.6488 26.7167 13.6488Z" fill="#5A5A5C"/>
<path d="M68.2596 28.0954C69.3359 28.3669 70.4283 27.7137 70.6996 26.6363C70.9709 25.5589 70.3183 24.4654 69.242 24.1939C68.1657 23.9223 67.0733 24.5755 66.802 25.6529C66.5307 26.7303 67.1833 27.8238 68.2596 28.0954Z" fill="white"/>
<path d="M68.1777 28.4232C67.7278 28.3097 67.3215 28.0652 67.0103 27.7207C66.6991 27.3761 66.4969 26.947 66.4293 26.4875C66.3616 26.0279 66.4315 25.5586 66.6302 25.1389C66.8289 24.7191 67.1474 24.3677 67.5455 24.1291C67.9436 23.8904 68.4034 23.7753 68.8669 23.7981C69.3303 23.8209 69.7766 23.9808 70.1494 24.2574C70.5221 24.5341 70.8046 24.9151 70.9611 25.3524C71.1177 25.7896 71.1412 26.2635 71.0288 26.7142C70.8765 27.3189 70.4908 27.8385 69.9563 28.1589C69.4218 28.4793 68.7822 28.5743 68.1777 28.4232ZM69.1614 24.5168C68.8395 24.4355 68.5008 24.4518 68.1881 24.5634C67.8754 24.675 67.6028 24.877 67.4049 25.1437C67.207 25.4105 67.0925 25.73 67.0761 26.0619C67.0597 26.3938 67.1421 26.7231 67.3128 27.0081C67.4834 27.2932 67.7348 27.5211 68.0349 27.663C68.3351 27.805 68.6706 27.8546 68.9989 27.8055C69.3272 27.7565 69.6336 27.6111 69.8793 27.3876C70.125 27.1642 70.299 26.8728 70.3791 26.5503C70.4849 26.1191 70.4164 25.6635 70.1883 25.2827C69.9602 24.9019 69.5912 24.6266 69.1614 24.5168Z" fill="#5A5A5C"/>
<path d="M68.0508 24.6115C68.1751 24.5671 68.3078 24.5511 68.439 24.5647C68.5703 24.5782 68.6969 24.6211 68.8095 24.69C68.9221 24.7589 69.0179 24.8521 69.0898 24.9629C69.1617 25.0737 69.208 25.1991 69.2252 25.3301C69.3987 26.0443 67.6547 26.7499 67.6547 26.7499C67.6547 26.7499 68.7902 27.7068 69.8213 26.8584C70.8524 26.0099 70.0328 24.5942 70.0328 24.5942C70.0328 24.5942 69.1165 23.8351 68.2513 24.1922C67.3861 24.5493 68.0508 24.6115 68.0508 24.6115Z" fill="#5A5A5C"/>
<path d="M34.4037 12.4471C34.3955 12.3951 34.3733 12.3462 34.3396 12.3057C34.3058 12.2652 34.2617 12.2347 34.212 12.2173C34.1623 12.1998 34.1089 12.1962 34.0573 12.2068C34.0057 12.2174 33.9579 12.2418 33.919 12.2773C33.0876 13.1709 32.6019 16.7332 31.8825 17.391C31.0724 18.1369 23.6522 18.5136 23.4165 18.528L23.9568 20.0686L32.7652 18.2631C33.0498 17.1783 33.4011 16.1121 33.8169 15.0706C34.1453 14.2313 34.3432 13.3465 34.4037 12.4471ZM32.9005 17.5581C32.7098 18.001 32.4314 18.3108 32.2753 18.2398C32.1191 18.1687 32.1435 17.7578 32.3292 17.3137C32.5148 16.8696 32.7982 16.561 32.9556 16.6271C33.113 16.6932 33.0874 17.109 32.9005 17.5581Z" fill="#5A5A5C"/>
<path d="M34.4168 11.6379C34.2918 12.1342 36.8581 11.4514 38.2282 11.0158C39.3746 10.518 40.5581 10.1106 41.7679 9.79724C43.5432 9.38974 45.3568 9.17308 47.178 9.15096C47.178 9.15096 47.7304 8.92607 47.3298 8.90419C45.5906 8.8207 43.8476 8.87336 42.1166 9.06169C39.4518 9.40291 34.5606 11.0459 34.4168 11.6379Z" fill="#5A5A5C"/>
<path d="M65.0905 18.9814C64.3676 16.9513 62.4735 14.5042 59.9698 12.3627C57.5234 10.2275 54.6535 8.63438 51.5485 7.68809L50.7155 7.4779C47.5349 6.83899 44.2553 6.88044 41.0918 7.59953C37.8682 8.29599 35.0465 9.55316 33.4487 10.9977C33.3788 11.081 33.3144 11.1688 33.256 11.2605L33.3957 11.5017C34.0135 10.7654 42.9197 6.45589 50.4917 8.36641L51.3248 8.5766C58.8968 10.4871 64.7032 18.5088 64.8986 19.4503L65.1358 19.3042C65.1114 19.0869 65.0905 18.9814 65.0905 18.9814Z" fill="#5A5A5C"/>
<path d="M66.6751 28.7356C65.5496 27.892 64.5106 26.9384 63.5737 25.8889C63.5152 25.8099 63.4745 25.7191 63.4541 25.6229C63.4337 25.5267 63.4343 25.4272 63.4557 25.3312C63.8015 23.6802 64.0154 22.0042 64.0955 20.3191C64.0993 20.1623 64.0682 20.0066 64.0046 19.8633C62.7105 16.9818 60.6351 14.5213 58.0141 12.7612C53.6735 9.97673 50.6831 9.37003 50.6831 9.37003L50.6218 9.61325C58.6401 11.6364 62.8565 19.6686 62.8565 19.6686C62.8565 19.6686 63.0994 20.4004 62.8809 22.3988C62.7513 23.5128 62.5558 24.6181 62.2953 25.7089L62.4538 25.8334C62.4403 25.4566 62.4681 25.0794 62.5366 24.7087C62.6771 23.8995 63.0503 22.6686 63.2276 22.6975C63.4049 22.7264 63.398 23.7382 63.1839 24.7981C63.1136 25.2376 62.9795 25.6644 62.7858 26.0649L63.0595 26.2765L63.0482 26.3212L69.1864 31.4545C69.1864 31.4545 69.4998 31.0478 66.6751 28.7356Z" fill="#5A5A5C"/>
<path d="M40.7833 25.7239C38.1292 28.2217 35.0555 29.6212 31.0741 30.9395C30.497 31.137 29.8628 31.3307 29.2225 31.5281C28.8105 31.6564 28.3972 31.7686 27.9865 31.8708C24.2643 32.8082 20.3752 32.8645 16.6276 32.035C16.5463 32.0166 16.474 31.9703 16.4232 31.9043C16.3726 31.8469 16.3426 31.7743 16.338 31.698C16.0277 28.6159 17.4613 24.8494 20.417 22.2429C21.7859 21.0334 23.4077 20.1457 25.1637 19.6449C27.3116 19.0191 29.5715 18.8789 31.7802 19.2343C32.1001 19.2834 32.4113 19.346 32.72 19.4187C36.4057 20.2589 39.4613 22.4499 40.8574 25.2833C40.8917 25.3547 40.9028 25.4351 40.8892 25.5131C40.8779 25.5931 40.8407 25.6672 40.7833 25.7239Z" fill="#5A5A5C"/>
<path d="M16.524 32.6159L16.4843 32.6059C16.2825 32.5557 16.1022 32.4418 15.9702 32.2809C15.8817 32.1719 15.8165 32.0458 15.7787 31.9105L15.7653 31.7752L15.7556 31.6882C15.4509 28.2697 17.1153 24.4241 20.0152 21.8511L20.0264 21.8064L20.0761 21.7767C21.4996 20.5297 23.1819 19.6145 25.0015 19.0971C27.2339 18.4512 29.5808 18.3044 31.876 18.6672C32.2244 18.7287 32.5468 18.7889 32.8505 18.8603C36.721 19.7418 39.9103 22.0511 41.383 25.0411C41.4761 25.22 41.5079 25.4247 41.4736 25.6235C41.4364 25.8344 41.3341 26.0283 41.1811 26.1779C38.4089 28.8096 35.2075 30.2138 31.2558 31.5184C30.68 31.711 30.0669 31.9047 29.3943 32.1045C28.976 32.2366 28.5454 32.3549 28.1186 32.4584C24.3181 33.4093 20.3488 33.4633 16.524 32.6159ZM20.7552 22.7241C18.1523 25.0395 16.6722 28.467 16.9057 31.498C20.5175 32.2728 24.2589 32.2053 27.8405 31.3007C28.245 31.2022 28.6533 31.0888 29.0529 30.9679C29.7169 30.7606 30.3188 30.5693 30.8946 30.3767C34.6402 29.1362 37.679 27.8124 40.271 25.394C38.9278 22.7903 36.0666 20.7698 32.6016 19.9747C32.314 19.9021 32.0264 19.8295 31.6965 19.7991C29.5732 19.4623 27.4019 19.5976 25.3367 20.1952C23.6681 20.6682 22.1256 21.5071 20.821 22.6509L20.7825 22.6993L20.7552 22.7241Z" fill="#5A5A5C"/>
<path d="M16.336 31.6922C16.336 31.6922 26.4481 24.604 39.5583 25.1087C39.5583 25.1087 34.6901 16.7958 24.4294 19.8872C24.4331 19.8723 16.1331 23.0519 16.336 31.6922Z" fill="#5A5A5C"/>
<path d="M38.946 25.1867C38.946 25.1867 35.3286 29.3736 31.9042 30.6581C28.4797 31.9427 20.5915 31.9373 17.7795 30.7474C20.1122 29.2502 22.6565 28.1126 25.327 27.3727C29.6306 26.2202 35.4556 25.2668 35.4556 25.2668C34.6837 26.6247 33.7117 27.8584 32.5723 28.9262C32.5723 28.9262 36.0303 26.9639 37.2133 25.156L38.946 25.1867Z" fill="#5A5A5C"/>
<path d="M16.798 32.3472L15.9065 31.5943C17.6468 29.5839 22.1742 27.5007 28.0225 26.0147C32.4662 24.8923 38.2489 24.0233 41.1506 24.9824L40.785 26.0991C38.5886 25.376 33.6899 25.7923 28.3056 27.1736C22.791 28.5485 18.3755 30.5438 16.798 32.3472Z" fill="#5A5A5C"/>
<path d="M31.0839 30.9682L29.7957 26.2615C29.3143 26.3723 27.0014 26.8868 26.5087 27.0423L28.0308 32.035L31.0839 30.9682Z" fill="white"/>
<path d="M27.6514 32.7892L25.7768 26.6622L26.3228 26.4833C26.7088 26.3537 28.0129 26.0545 29.2252 25.785L29.6657 25.6902L30.2253 25.5622L31.8166 31.3484L27.6514 32.7892ZM27.245 27.4497L28.4183 31.2723L30.3781 30.5895L29.3792 26.9535C28.7973 27.0865 27.8629 27.2995 27.245 27.4497Z" fill="#5A5A5C"/>
<path d="M29.6481 26.6785C29.4978 26.8727 29.3688 27.0827 29.2637 27.3048C29.1499 27.538 29.0649 27.7842 29.0105 28.038C28.9461 28.3004 28.9086 28.5686 28.8986 28.8386C28.8829 29.1169 28.8956 29.396 28.9366 29.6717C28.802 29.4179 28.6925 29.1516 28.6095 28.8765C28.5229 28.5944 28.4616 28.3051 28.4264 28.012C28.3899 27.7062 28.3864 27.3974 28.4157 27.0908C28.446 26.7702 28.5098 26.4536 28.6061 26.1464L29.6481 26.6785Z" fill="#5A5A5C"/>
<path d="M32.7132 19.4067C32.4058 19.3291 32.0983 19.2515 31.7734 19.2223C29.8406 19.3458 27.9511 19.8494 26.2128 20.7044C24.4746 21.5593 22.9217 22.7488 21.643 24.2049L20.1513 24.0133C20.457 23.1541 21.0126 22.4062 21.7468 21.866C22.9292 21.0029 20.5356 22.1728 20.4202 22.2334C17.8307 24.663 17.607 29.3631 17.6351 29.6077C18.547 28.8348 20.8202 27.6821 23.7207 26.656C23.5162 25.9603 23.2041 24.414 24.42 24.1929C25.0689 24.0874 24.8288 25.7741 24.4816 26.3781C27.0278 25.5161 29.6536 24.9107 32.32 24.5707C32.0645 23.9097 31.1321 21.2249 31.9304 20.7771C32.8157 20.2983 34.1614 20.9651 34.8507 21.7462C35.415 22.4164 35.8921 23.8936 36.0499 24.3768C37.6928 24.397 39.3212 24.6866 40.8705 25.2342C39.4682 22.4467 36.4139 20.2506 32.7132 19.4067ZM26.0033 23.2039C25.8149 23.1564 25.7387 22.8099 25.8349 22.4277C25.9312 22.0455 26.1624 21.7765 26.3508 21.824C26.5392 21.8716 26.6105 22.2169 26.5143 22.5991C26.418 22.9813 26.2017 23.254 26.0182 23.2077L26.0033 23.2039Z" fill="#5A5A5C"/>
<path d="M14.191 76.6728L8.61659 85.2596L10.1652 86.8171L17.969 81.1261L14.191 76.6728Z" fill="#5A5A5C"/>
<path d="M10.1033 87.5879L7.86524 85.3339L14.1238 75.7055L18.82 81.2457L10.1033 87.5879ZM9.37002 85.1804L10.208 86.0412L17.0939 81.0213L14.2478 77.6636L9.37002 85.1804Z" fill="#5A5A5C"/>
<path d="M9.58845 86.2384C9.58845 86.2384 14.1213 79.4001 15.1345 80.1098C16.1477 80.8194 9.77414 86.4225 9.77414 86.4225L9.58845 86.2384Z" fill="white"/>
<path d="M13.255 78.126C14.0292 78.654 13.76 79.9744 12.0025 81.9066C10.2449 83.8387 8.61242 85.2745 8.61242 85.2745L13.255 78.126Z" fill="white"/>
<path d="M10.1033 87.5879L7.86524 85.3339L14.1238 75.7055L18.82 81.2457L10.1033 87.5879ZM9.37002 85.1804L10.208 86.0412L17.0939 81.0213L14.2478 77.6636L9.37002 85.1804Z" fill="#5A5A5C"/>
<path d="M12.4422 79.611L11.593 80.4248L14.6585 83.63L15.5077 82.8161L12.4422 79.611Z" fill="#5A5A5C"/>
<path d="M50.9457 85.9465L51.788 96.1523L49.6919 96.7902L45.5153 88.0764L50.9457 85.9465Z" fill="#5A5A5C"/>
<path d="M49.3814 97.4984L44.7082 87.7618L51.4629 85.1267L52.4107 96.5892L49.3814 97.4984ZM46.3156 88.3944L50.0018 96.0817L51.1472 95.7214L50.4092 86.7772L46.3156 88.3944Z" fill="#5A5A5C"/>
<path d="M50.4679 96.5531C50.4679 96.5531 49.7148 88.381 48.4916 88.5264C47.2684 88.6718 50.2222 96.6283 50.2222 96.6283L50.4679 96.5531Z" fill="white"/>
<path d="M51.086 87.6711C50.1494 87.7674 49.7612 89.0578 50.3988 91.5943C51.0363 94.1307 51.784 96.1671 51.784 96.1671L51.086 87.6711Z" fill="white"/>
<path d="M49.3814 97.4984L44.7082 87.7618L51.4629 85.1267L52.4107 96.5892L49.3814 97.4984ZM46.3156 88.3944L50.0018 96.0817L51.1472 95.7214L50.4092 86.7772L46.3156 88.3944Z" fill="#5A5A5C"/>
<path d="M51.0949 89.3606L46.8782 90.729L47.2407 91.8485L51.4574 90.48L51.0949 89.3606Z" fill="#5A5A5C"/>
<path d="M47.288 27.6661L45.0119 27.0918L44.0758 30.8096L46.3518 31.3839L47.288 27.6661Z" fill="#5A5A5C"/>
<path d="M46.7732 32.0975L43.3615 31.2367L44.5852 26.3772L47.9968 27.238L46.7732 32.0975ZM44.7846 30.3816L45.9251 30.6693L46.5738 28.0931L45.4333 27.8054L44.7846 30.3816Z" fill="#5A5A5C"/>
<path d="M50.4852 26.5986C50.4177 26.871 50.2872 27.1238 50.1042 27.3365C49.9768 27.4866 49.8253 27.6143 49.6558 27.7143C49.4509 27.8341 49.2244 27.9118 48.9892 27.9431C48.7541 27.9744 48.5151 27.9586 48.2861 27.8967L44.0315 26.8232C43.6376 26.7242 43.2882 26.4958 43.0393 26.1746C42.7903 25.8534 42.6561 25.4579 42.6582 25.0513C42.6588 24.9047 42.6778 24.7587 42.7149 24.6169C42.7618 24.4278 42.8392 24.2476 42.9441 24.0835C43.0938 23.8446 43.2977 23.6447 43.5394 23.4999C43.9563 23.262 44.4497 23.197 44.914 23.3188L49.1735 24.3935C49.3419 24.4349 49.5029 24.5022 49.6506 24.5931C49.9876 24.7922 50.251 25.0952 50.4014 25.4568C50.5519 25.8183 50.5813 26.2189 50.4852 26.5986Z" fill="#5A5A5C"/>
<path d="M50.3164 25.2732C50.2403 25.133 50.1342 25.0114 50.0058 24.9169C49.8773 24.8225 49.7297 24.7575 49.5733 24.7267L49.6443 24.5915C49.4965 24.5006 49.3355 24.4333 49.1671 24.3919L44.9125 23.3184C44.4483 23.1966 43.9549 23.2616 43.5379 23.4995C43.2963 23.6443 43.0923 23.8443 42.9427 24.0831C43.5138 23.9199 44.1207 23.9315 44.6852 24.1163L48.9002 25.1798C48.843 25.4678 48.8979 25.7668 49.0536 26.0157C49.0783 26.1357 49.1312 26.2481 49.2079 26.3436C49.2845 26.4392 49.3828 26.5151 49.4945 26.5652C49.6063 26.6152 49.7283 26.6379 49.8506 26.6315C49.9728 26.625 50.0918 26.5896 50.1977 26.528C50.3035 26.4665 50.3933 26.3806 50.4595 26.2775C50.5257 26.1744 50.5664 26.0571 50.5784 25.9351C50.5903 25.8131 50.5732 25.6901 50.5283 25.5761C50.4833 25.4621 50.412 25.3604 50.3201 25.2794L50.3164 25.2732Z" fill="white"/>
<path d="M50.103 27.3364C49.9756 27.4864 49.824 27.6141 49.6545 27.7142C49.4497 27.8339 49.2231 27.9117 48.988 27.943C48.7529 27.9743 48.5139 27.9585 48.2849 27.8965L44.0303 26.823C43.6364 26.724 43.287 26.4956 43.038 26.1744C42.7891 25.8532 42.6549 25.4577 42.657 25.0511L43.1082 25.165C43.2939 24.742 44.2352 24.7525 45.2167 25.1691C46.0569 25.5394 46.6425 26.1042 46.6752 26.519C47.7906 26.8951 48.938 27.1687 50.103 27.3364Z" fill="white"/>
<path d="M48.1371 28.4874L43.8825 27.4139C43.3604 27.2828 42.8974 26.98 42.5676 26.5542C42.2378 26.1283 42.0604 25.6039 42.0638 25.0651C42.0663 24.872 42.0916 24.6799 42.1393 24.4929C42.2014 24.2429 42.3041 24.0049 42.4433 23.7883L42.5267 23.6668C42.8078 23.2772 43.1994 22.9813 43.6508 22.8174C44.1021 22.6536 44.5922 22.6294 45.0574 22.748L49.317 23.8227C49.5422 23.8794 49.7577 23.9694 49.9565 24.0896C50.4001 24.3554 50.7468 24.7567 50.9455 25.2345C51.1442 25.7123 51.1844 26.2413 51.0601 26.7437C50.9693 27.106 50.7944 27.4416 50.5497 27.7235C50.3808 27.9206 50.1816 28.0896 49.9596 28.224C49.688 28.3856 49.3873 28.4921 49.0746 28.5373C48.7618 28.5825 48.4433 28.5655 48.1371 28.4874ZM43.3846 24.4903C43.3336 24.5844 43.2942 24.6844 43.2674 24.7881C43.2448 24.8854 43.2321 24.9848 43.2297 25.0847C43.233 25.3589 43.3271 25.6243 43.4973 25.8392C43.6675 26.0541 43.9041 26.2064 44.17 26.2722L48.4295 27.347C48.6516 27.4027 48.8848 27.3951 49.1028 27.3251C49.3208 27.2551 49.5149 27.1255 49.6632 26.9508C49.7884 26.8096 49.8781 26.6403 49.9246 26.4572C49.9883 26.2002 49.9677 25.9296 49.8658 25.6853C49.764 25.4409 49.5864 25.2358 49.3592 25.1003C49.2585 25.039 49.149 24.9935 49.0345 24.9656L44.7699 23.8896C44.6137 23.8492 44.4509 23.8403 44.2912 23.8634C44.1314 23.8866 43.9779 23.9413 43.8395 24.0244C43.6752 24.1193 43.5366 24.2528 43.4356 24.4135L43.3846 24.4903Z" fill="#5A5A5C"/>
<path d="M60.5498 50.5855L59.3167 51.0811L59.3795 51.2377L60.6126 50.7422L60.5498 50.5855Z" fill="#5A5A5C"/>
<path d="M31.5107 85.5088C45.727 89.0958 60.1565 80.4674 63.7398 66.2368C67.3232 52.0062 58.7035 37.5622 44.4872 33.9752C30.2709 30.3883 15.8414 39.0167 12.2581 53.2473C8.67473 67.4779 17.2944 81.9219 31.5107 85.5088Z" fill="white"/>
<path d="M53.3741 66.4167C57.0594 57.9152 53.162 48.0328 44.6691 44.3438C36.1761 40.6548 26.3037 44.5561 22.6184 53.0576C18.9331 61.5591 22.8304 71.4415 31.3234 75.1305C39.8163 78.8195 49.6888 74.9182 53.3741 66.4167Z" fill="#FF946E"/>
<path d="M31.3664 86.0798C26.1609 84.7674 21.4611 81.9392 17.8614 77.9529C14.2618 73.9666 11.924 69.0013 11.1437 63.6849C10.3634 58.3685 11.1756 52.9398 13.4777 48.0856C15.7798 43.2313 19.4683 39.1695 24.0767 36.4138C28.6852 33.6581 34.0065 32.3323 39.3677 32.6042C44.7289 32.876 49.8891 34.7333 54.1957 37.9411C58.5024 41.1488 61.7619 45.563 63.5622 50.6253C65.3624 55.6876 65.6225 61.1706 64.3095 66.3808C62.5433 73.3616 58.083 79.356 51.9071 83.049C45.7312 86.742 38.3441 87.832 31.3664 86.0798ZM44.3441 34.5412C39.3648 33.2849 34.1252 33.5348 29.2878 35.2593C24.4504 36.9838 20.2326 40.1055 17.1675 44.2296C14.1025 48.3536 12.3281 53.2949 12.0685 58.4285C11.809 63.5621 13.076 68.6575 15.7094 73.0703C18.3428 77.483 22.2243 81.015 26.863 83.2196C31.5017 85.4242 36.6894 86.2023 41.7699 85.4556C46.8504 84.7089 51.5957 82.4709 55.4056 79.0247C59.2154 75.5784 61.9189 71.0786 63.1739 66.0943C64.8484 59.411 63.8064 52.3358 60.2764 46.4205C56.7464 40.5053 51.0167 36.2332 44.3441 34.5412Z" fill="#5A5A5C"/>
<path d="M45.2118 31.0964C39.5519 29.6694 33.5963 29.9544 28.0982 31.9154C22.6001 33.8764 17.8063 37.4253 14.3231 42.1134C10.8398 46.8015 8.82354 52.4183 8.52915 58.2534C8.23477 64.0886 9.67551 69.8801 12.6692 74.8956C15.6629 79.9111 20.0751 83.9255 25.3479 86.431C30.6207 88.9364 36.5173 89.8206 42.292 88.9716C48.0668 88.1226 53.4604 85.5786 57.7908 81.6613C62.1212 77.744 65.194 72.6293 66.6206 66.9639C67.5679 63.2016 67.7657 59.2894 67.2024 55.4507C66.6392 51.612 65.3261 47.9219 63.338 44.5912C61.35 41.2605 58.726 38.3545 55.6159 36.039C52.5058 33.7236 48.9705 32.044 45.2118 31.0964ZM31.5104 85.509C26.4182 84.2241 21.8209 81.4565 18.3001 77.5562C14.7792 73.6558 12.4929 68.7979 11.7303 63.5968C10.9676 58.3957 11.763 53.0851 14.0156 48.3364C16.2683 43.5878 19.8772 39.6146 24.3858 36.9191C28.8945 34.2237 34.1004 32.9272 39.3451 33.1935C44.5899 33.4598 49.638 35.2771 53.851 38.4154C58.064 41.5537 61.2526 45.8722 63.0137 50.8246C64.7747 55.7771 65.029 61.1411 63.7445 66.2382C62.8924 69.6224 61.3826 72.8053 59.3014 75.6054C57.2202 78.4054 54.6084 80.7676 51.6151 82.5571C48.6218 84.3466 45.3057 85.5284 41.8561 86.0348C38.4065 86.5413 34.891 86.3626 31.5104 85.509Z" fill="#5A5A5C"/>
<path d="M13.4504 71.1909L13.7172 71.7861C13.8148 71.985 13.9149 72.1739 14.0087 72.3876C14.1026 72.6013 14.2126 72.7716 14.3177 72.9618L14.4734 73.2439L14.6465 73.5199C15.0886 74.2585 15.5708 74.9724 16.091 75.6581L16.4894 76.1704C16.6156 76.3395 16.7592 76.5024 16.8916 76.6678C17.1601 77.0048 17.4459 77.3356 17.7331 77.6403C17.8717 77.802 18.0227 77.9563 18.1688 78.1092L18.6106 78.5744C18.9152 78.873 19.2247 79.1728 19.5317 79.4614C22.0252 81.7802 24.9262 83.6165 28.0879 84.8775C28.482 85.0297 28.8737 85.1919 29.2753 85.3144C29.6769 85.4368 30.0747 85.5953 30.4875 85.6941L31.1024 85.8493C31.3107 85.9018 31.514 85.9531 31.7223 86.0057L32.962 86.2763C34.6358 86.5872 36.3329 86.7558 38.0351 86.7802L38.6763 86.7889C38.8921 86.7906 39.1017 86.796 39.3163 86.7815L40.5989 86.7355C41.0305 86.7178 41.4548 86.6664 41.8853 86.6325L42.5266 86.5779L43.1655 86.491C43.596 86.4359 44.0253 86.3859 44.452 86.3246C44.8788 86.2634 45.3044 86.1649 45.7225 86.1173L46.3677 86.0055L46.9992 85.864L48.2797 85.5958C47.8751 85.7577 47.4605 85.917 47.0559 86.0578L46.4403 86.2825L45.8161 86.4787L44.5564 86.8525C44.1283 86.9609 43.704 87.0544 43.2771 87.1579L42.6331 87.3069L41.983 87.4173C41.5487 87.4873 41.1157 87.5733 40.6828 87.6172L39.3702 87.7612C39.1519 87.7905 38.9286 87.7975 38.7091 87.8108L38.0479 87.8393C36.2719 87.9228 34.492 87.8274 32.7351 87.5546C32.2949 87.4805 31.8598 87.3865 31.4221 87.3025C31.2089 87.2487 30.9907 87.1937 30.7775 87.1399L30.1279 86.9759C29.6965 86.8671 29.275 86.7185 28.8499 86.5849C28.4247 86.4512 28.0071 86.2877 27.5931 86.1305C22.5971 84.151 18.3743 80.6079 15.5545 76.0296C15.0882 75.2613 14.6725 74.4634 14.3102 73.6409C13.9501 72.852 13.6624 72.0319 13.4504 71.1909Z" fill="#5A5A5C"/>
<path d="M50.3918 34.5676C52.6204 35.7686 54.74 37.1619 56.7266 38.7316C57.7217 39.5336 58.6627 40.4006 59.5433 41.327C62.2071 44.1433 64.1347 47.5746 65.1549 51.3161C65.817 53.8006 66.1793 56.3556 66.2341 58.9264L66.2459 59.8849C66.249 60.2077 66.2322 60.5255 66.2304 60.847C66.218 61.4827 66.1919 62.1307 66.1361 62.7712C66.1132 63.0928 66.0691 63.4142 66.0363 63.7332C66.0034 64.0523 65.9544 64.3725 65.8955 64.6902C65.7938 65.3244 65.6661 65.9574 65.5086 66.5828C64.8891 69.0877 63.8692 71.4759 62.4884 73.655C61.7998 74.736 61.0299 75.763 60.1855 76.727C59.3425 77.6892 58.4349 78.5926 57.4689 79.4308C56.5063 80.2628 55.4887 81.029 54.4233 81.7243C53.3655 82.4149 52.2526 83.017 51.0958 83.5242C51.6545 83.2323 52.1922 82.8982 52.7225 82.5515C53.2528 82.2049 53.7645 81.8484 54.2712 81.4694C55.2796 80.7156 56.2405 79.9003 57.1485 79.0279C58.9665 77.3085 60.5421 75.3493 61.8319 73.2043C62.1505 72.6723 62.4467 72.1241 62.7194 71.5647C62.9921 71.0053 63.2599 70.4446 63.4892 69.869C63.9562 68.7191 64.3321 67.5342 64.6136 66.3253C64.8951 65.117 65.0861 63.8894 65.185 62.6527C65.2346 62.037 65.2581 61.42 65.2631 60.793C65.2686 60.4777 65.2792 60.1636 65.2723 59.8557L65.2555 58.917C65.2156 56.4238 64.8861 53.9437 64.2739 51.5267C63.9539 50.3251 63.5449 49.149 63.0503 48.0083C62.5566 46.8681 61.977 45.7671 61.3166 44.7148C59.9537 42.6105 58.3024 40.7083 56.411 39.0638C54.511 37.4274 52.4998 35.9251 50.3918 34.5676Z" fill="#5A5A5C"/>
<path d="M9.06175 60.2014C9.04033 59.0926 9.05737 57.9778 9.13146 56.8667C9.19089 55.7475 9.32857 54.6339 9.54349 53.534C9.99482 51.3298 10.7111 49.1884 11.6767 47.1566C13.638 43.06 16.5391 39.4857 20.1433 36.7253C23.7474 33.9649 27.9525 32.0966 32.4154 31.2728C33.5222 31.0705 34.6398 30.933 35.7625 30.8609C36.8833 30.7979 38.0067 30.7976 39.1274 30.86C41.3521 30.9959 43.5514 31.4072 45.6751 32.0844C43.508 31.6814 41.3065 31.4937 39.1026 31.5241C38.0091 31.5379 36.9173 31.615 35.8327 31.7549C34.7581 31.8722 33.6907 32.0488 32.6355 32.2838C28.3936 33.2562 24.4094 35.1278 20.9515 37.7723C17.4935 40.4168 14.6422 43.7728 12.5899 47.614C11.5624 49.544 10.7395 51.5764 10.1348 53.6779C9.84695 54.7386 9.62328 55.8157 9.46503 56.9034C9.28556 57.9931 9.17676 59.0954 9.06175 60.2014Z" fill="#5A5A5C"/>
<path d="M13.6443 46.1241L10.9846 47.6453L11.5681 48.6675L14.2278 47.1463L13.6443 46.1241Z" fill="#5A5A5C"/>
<path d="M13.6583 47.2236L11.7238 49.0002L11.1958 48.1438L13.6583 47.2236Z" fill="#5A5A5C"/>
<path d="M30.6426 88.9535C24.8697 87.497 19.6579 84.3595 15.6664 79.9378C11.675 75.5161 9.08304 70.0089 8.21845 64.1126C7.35386 58.2164 8.25544 52.1959 10.8092 46.8125C13.3629 41.4292 17.4541 36.9248 22.5653 33.869C27.6766 30.8132 33.5783 29.3433 39.5241 29.6452C45.4699 29.947 51.1928 32.0071 55.9689 35.5648C60.7451 39.1226 64.36 44.0182 66.3565 49.6325C68.3531 55.2469 68.6415 61.3278 67.1854 67.1062C65.2259 74.8494 60.2779 81.4982 53.4271 85.594C46.5763 89.6898 38.3822 90.898 30.6426 88.9535ZM45.0677 31.667C39.5206 30.2674 33.6834 30.5458 28.2943 32.4669C22.9053 34.3881 18.2064 37.8658 14.7918 42.4602C11.3773 47.0546 9.4004 52.5594 9.11125 58.2785C8.82211 63.9975 10.2336 69.674 13.1674 74.59C16.1011 79.506 20.4252 83.4408 25.593 85.8968C30.7607 88.3528 36.54 89.2197 42.1999 88.3879C47.8599 87.556 53.1463 85.0628 57.3906 81.2235C61.635 77.3841 64.6467 72.3712 66.0449 66.8185C67.9114 59.373 66.7509 51.4904 62.8182 44.9003C58.8855 38.3103 52.5017 33.5511 45.0677 31.667Z" fill="#5A5A5C"/>
<path d="M40.2355 60.3064C40.124 60.7492 39.8838 61.1489 39.5454 61.455C39.207 61.7612 38.7854 61.96 38.3341 62.0263C37.8828 62.0926 37.422 62.0235 37.0099 61.8277C36.5979 61.6319 36.253 61.3181 36.0191 60.9261C35.7852 60.5341 35.6726 60.0815 35.6957 59.6254C35.7187 59.1694 35.8764 58.7305 36.1486 58.3641C36.4209 57.9978 36.7956 57.7205 37.2253 57.5673C37.655 57.4141 38.1205 57.3919 38.5628 57.5035C38.8568 57.577 39.1335 57.7079 39.3768 57.8887C39.6202 58.0695 39.8255 58.2966 39.9809 58.5571C40.1363 58.8175 40.2388 59.1061 40.2825 59.4063C40.3262 59.7065 40.3102 60.0124 40.2355 60.3064Z" fill="#5A5A5C"/>
<path d="M42.0419 43.6845L38.4403 49.987L37.8349 59.7009L37.9985 59.7422L38.1621 59.7835L42.2338 50.9442L42.0419 43.6845Z" fill="#5A5A5C"/>
<path d="M36.3991 60.8539L25.225 65.4992L21.899 68.4873L26.2414 67.1176L36.556 61.1733L36.3991 60.8539Z" fill="#5A5A5C"/>
<path d="M38.497 58.3737C38.7489 58.4254 38.9767 58.5589 39.1449 58.7536C39.3265 58.9542 39.447 59.2025 39.4921 59.4694C39.5302 59.7275 39.5019 59.9911 39.41 60.2353C39.3246 60.4781 39.161 60.6857 38.945 60.8254C38.9874 60.602 39.0143 60.376 39.0257 60.1489C39.0326 59.9468 39.0217 59.7444 38.9933 59.5442C38.9657 59.3489 38.9127 59.158 38.8357 58.9765C38.7375 58.7676 38.6243 58.5662 38.497 58.3737Z" fill="white"/>
<path d="M43.6864 37.156C43.9164 37.214 44.1498 37.0746 44.2077 36.8446C44.2656 36.6146 44.1261 36.3811 43.8961 36.3231C43.6662 36.2651 43.4328 36.4045 43.3749 36.6345C43.3169 36.8645 43.4564 37.098 43.6864 37.156Z" fill="#5A5A5C"/>
<path d="M54.7723 42.8095C54.7522 42.8933 54.7077 42.9693 54.6444 43.0277C54.5811 43.0861 54.5018 43.1244 54.4167 43.1376C54.3316 43.1509 54.2444 43.1385 54.1663 43.1021C54.0882 43.0657 54.0226 43.0069 53.978 42.9332C53.9334 42.8595 53.9117 42.7741 53.9156 42.6881C53.9196 42.602 53.949 42.519 54.0002 42.4497C54.0514 42.3804 54.1221 42.328 54.2032 42.2989C54.2843 42.2699 54.3722 42.2657 54.4558 42.2868C54.511 42.3 54.5631 42.3241 54.609 42.3576C54.6549 42.3911 54.6937 42.4334 54.7231 42.4821C54.7526 42.5307 54.7721 42.5847 54.7805 42.6409C54.7889 42.6971 54.7861 42.7544 54.7723 42.8095Z" fill="#5A5A5C"/>
<path d="M31.9542 36.8308C31.9697 36.8852 31.9743 36.9422 31.9678 36.9984C31.9612 37.0546 31.9436 37.109 31.916 37.1584C31.8884 37.2077 31.8513 37.2512 31.8068 37.2862C31.7624 37.3211 31.7114 37.347 31.6569 37.3622C31.5752 37.385 31.4886 37.3831 31.408 37.3568C31.3273 37.3304 31.2563 37.2807 31.2038 37.214C31.1514 37.1473 31.1198 37.0666 31.1132 36.982C31.1065 36.8974 31.1251 36.8127 31.1665 36.7387C31.2079 36.6647 31.2703 36.6046 31.3459 36.566C31.4214 36.5274 31.5067 36.5121 31.591 36.5219C31.6752 36.5318 31.7547 36.5664 31.8193 36.6214C31.884 36.6763 31.9309 36.7492 31.9542 36.8308Z" fill="#5A5A5C"/>
<path d="M21.3355 42.9574C21.3806 42.9954 21.4174 43.0423 21.4435 43.0952C21.4697 43.1481 21.4847 43.2057 21.4876 43.2647C21.4905 43.3236 21.4812 43.3824 21.4604 43.4376C21.4396 43.4928 21.4076 43.543 21.3665 43.5853C21.3253 43.6275 21.2759 43.6609 21.2214 43.6832C21.1668 43.7055 21.1082 43.7163 21.0493 43.715C20.9903 43.7137 20.9323 43.7002 20.8787 43.6755C20.8252 43.6508 20.7773 43.6153 20.7381 43.5712C20.693 43.5332 20.6562 43.4862 20.6301 43.4334C20.6039 43.3805 20.5889 43.3228 20.586 43.2639C20.5831 43.205 20.5924 43.1461 20.6132 43.091C20.634 43.0358 20.666 42.9855 20.7071 42.9433C20.7483 42.901 20.7977 42.8677 20.8522 42.8454C20.9068 42.8231 20.9654 42.8122 21.0243 42.8136C21.0833 42.8149 21.1413 42.8283 21.1949 42.8531C21.2484 42.8778 21.2963 42.9133 21.3355 42.9574Z" fill="#5A5A5C"/>
<path d="M15.1969 53.5719C15.3074 53.5997 15.4022 53.6703 15.4606 53.7681C15.5191 53.8659 15.5363 53.9829 15.5085 54.0934C15.4806 54.2038 15.4101 54.2987 15.3123 54.3571C15.2146 54.4155 15.0976 54.4326 14.9872 54.4048C14.8767 54.3769 14.7819 54.3063 14.7234 54.2085C14.665 54.1107 14.6478 53.9937 14.6756 53.8833C14.7034 53.7728 14.774 53.6779 14.8718 53.6195C14.9695 53.5612 15.0865 53.544 15.1969 53.5719Z" fill="#5A5A5C"/>
<path d="M15.1884 65.8384C15.2701 65.8155 15.3568 65.8174 15.4374 65.8438C15.5181 65.8702 15.5891 65.9198 15.6416 65.9865C15.694 66.0532 15.7256 66.134 15.7322 66.2186C15.7389 66.3032 15.7203 66.3878 15.6789 66.4619C15.6375 66.5359 15.5751 66.596 15.4995 66.6346C15.424 66.6732 15.3387 66.6885 15.2544 66.6786C15.1702 66.6688 15.0907 66.6342 15.026 66.5792C14.9614 66.5242 14.9145 66.4513 14.8912 66.3697C14.8612 66.2598 14.8756 66.1426 14.9312 66.0432C14.9868 65.9438 15.0792 65.8703 15.1884 65.8384Z" fill="#5A5A5C"/>
<path d="M21.3046 76.4615C21.3845 76.3804 21.493 76.334 21.6069 76.3321C21.7207 76.3303 21.8308 76.3732 21.9133 76.4517C21.9742 76.5109 22.0161 76.5867 22.0339 76.6697C22.0516 76.7527 22.0444 76.8391 22.0132 76.9179C21.9819 76.9968 21.928 77.0646 21.8582 77.1129C21.7884 77.1611 21.7059 77.1876 21.6211 77.1889C21.5363 77.1903 21.4529 77.1665 21.3816 77.1206C21.3103 77.0746 21.2541 77.0086 21.2203 76.9308C21.1864 76.8529 21.1763 76.7669 21.1913 76.6833C21.2063 76.5998 21.2457 76.5227 21.3046 76.4615Z" fill="#5A5A5C"/>
<path d="M32.2245 83.133C32.4545 83.1911 32.6878 83.0517 32.7458 82.8217C32.8037 82.5917 32.6642 82.3582 32.4342 82.3001C32.2042 82.2421 31.9709 82.3815 31.9129 82.6115C31.855 82.8415 31.9945 83.075 32.2245 83.133Z" fill="#5A5A5C"/>
<path d="M44.1668 82.62C44.1439 82.5382 44.1458 82.4516 44.1721 82.3709C44.1985 82.2903 44.2481 82.2193 44.3148 82.1668C44.3814 82.1144 44.4621 82.0828 44.5467 82.0762C44.6313 82.0696 44.7159 82.0882 44.79 82.1297C44.864 82.1711 44.9241 82.2336 44.9627 82.3092C45.0013 82.3847 45.0167 82.47 45.0069 82.5543C44.997 82.6386 44.9625 82.7181 44.9076 82.7827C44.8526 82.8473 44.7798 82.8942 44.6982 82.9175C44.6438 82.933 44.5868 82.9376 44.5306 82.931C44.4744 82.9245 44.4201 82.9068 44.3707 82.8792C44.3213 82.8515 44.2779 82.8144 44.2429 82.7699C44.2079 82.7254 44.182 82.6745 44.1668 82.62Z" fill="#5A5A5C"/>
<path d="M54.7849 76.4985C54.7241 76.4393 54.6821 76.3635 54.6644 76.2805C54.6466 76.1975 54.6538 76.1111 54.6851 76.0323C54.7163 75.9534 54.7703 75.8856 54.84 75.8373C54.9098 75.7891 54.9923 75.7626 55.0771 75.7613C55.162 75.7599 55.2453 75.7837 55.3166 75.8296C55.388 75.8756 55.4441 75.9416 55.478 76.0194C55.5118 76.0972 55.5219 76.1833 55.5069 76.2669C55.4919 76.3504 55.4525 76.4275 55.3937 76.4887C55.3138 76.5698 55.2052 76.6162 55.0913 76.6181C54.9775 76.6199 54.8674 76.577 54.7849 76.4985Z" fill="#5A5A5C"/>
<path d="M60.9257 65.8691C60.8152 65.8413 60.7204 65.7707 60.6619 65.6729C60.6035 65.5751 60.5863 65.4581 60.6141 65.3476C60.6419 65.2372 60.7125 65.1423 60.8102 65.0839C60.908 65.0255 61.025 65.0084 61.1354 65.0362C61.2458 65.0641 61.3407 65.1347 61.3991 65.2325C61.4576 65.3303 61.4748 65.4473 61.4469 65.5577C61.4191 65.6682 61.3486 65.763 61.2508 65.8214C61.1531 65.8798 61.0361 65.897 60.9257 65.8691Z" fill="#5A5A5C"/>
<path d="M60.9323 53.6127C60.8506 53.6355 60.764 53.6336 60.6834 53.6072C60.6027 53.5809 60.5317 53.5312 60.4792 53.4645C60.4268 53.3978 60.3952 53.3171 60.3886 53.2325C60.3819 53.1479 60.4005 53.0632 60.4419 52.9892C60.4833 52.9151 60.5457 52.855 60.6213 52.8165C60.6968 52.7779 60.7821 52.7626 60.8664 52.7724C60.9506 52.7823 61.0301 52.8169 61.0947 52.8718C61.1594 52.9268 61.2063 52.9997 61.2296 53.0813C61.2451 53.1357 61.2497 53.1927 61.2432 53.2489C61.2366 53.3051 61.2191 53.3595 61.1914 53.4089C61.1638 53.4582 61.1267 53.5017 61.0822 53.5366C61.0378 53.5716 60.9868 53.5975 60.9323 53.6127Z" fill="#5A5A5C"/>
<path d="M41.6184 35.6565L41.2844 35.6086L41.0962 36.9246L41.4302 36.9725L41.6184 35.6565Z" fill="#5A5A5C"/>
<path d="M39.0815 35.4067L38.7444 35.394L38.6946 36.7225L39.0318 36.7352L39.0815 35.4067Z" fill="#5A5A5C"/>
<path d="M36.5322 35.4302L36.1955 35.4529L36.2848 36.7793L36.6214 36.7567L36.5322 35.4302Z" fill="#5A5A5C"/>
<path d="M34.0064 35.7157L33.6741 35.7734L33.9013 37.0834L34.2337 37.0256L34.0064 35.7157Z" fill="#5A5A5C"/>
<path d="M29.1033 37.0647L28.7903 37.1904L29.2847 38.4246L29.5978 38.299L29.1033 37.0647Z" fill="#5A5A5C"/>
<path d="M26.7838 38.1245L26.4856 38.2822L27.1063 39.458L27.4045 39.3003L26.7838 38.1245Z" fill="#5A5A5C"/>
<path d="M24.5928 39.4287L24.3127 39.6167L25.0527 40.7214L25.3328 40.5334L24.5928 39.4287Z" fill="#5A5A5C"/>
<path d="M22.5394 40.9355L22.2805 41.1519L23.132 42.173L23.3909 41.9567L22.5394 40.9355Z" fill="#5A5A5C"/>
<path d="M18.9751 44.5745L18.7668 44.8398L19.8118 45.6618L20.0202 45.3964L18.9751 44.5745Z" fill="#5A5A5C"/>
<path d="M17.496 46.6403L17.3166 46.926L18.4419 47.6339L18.6213 47.3482L17.496 46.6403Z" fill="#5A5A5C"/>
<path d="M16.2338 48.8521L16.0852 49.155L17.2783 49.7413L17.4269 49.4384L16.2338 48.8521Z" fill="#5A5A5C"/>
<path d="M15.2189 51.1839L15.1028 51.5007L16.3506 51.959L16.4667 51.6422L15.2189 51.1839Z" fill="#5A5A5C"/>
<path d="M15.2633 56.315L13.9475 56.1265L13.8997 56.4605L15.2155 56.6491L15.2633 56.315Z" fill="#5A5A5C"/>
<path d="M15.3579 58.7331L14.0266 58.6853L14.0145 59.0233L15.3458 59.0711L15.3579 58.7331Z" fill="#5A5A5C"/>
<path d="M15.048 61.1159L13.7219 61.2048L13.7444 61.5416L15.0706 61.4526L15.048 61.1159Z" fill="#5A5A5C"/>
<path d="M15.3134 63.5163L14.0041 63.7449L14.0621 64.0774L15.3713 63.8488L15.3134 63.5163Z" fill="#5A5A5C"/>
<path d="M16.5927 68.1544L15.3596 68.6499L15.4852 68.9632L16.7184 68.4676L16.5927 68.1544Z" fill="#5A5A5C"/>
<path d="M17.5863 70.3532L16.4114 70.9741L16.5688 71.2727L17.7438 70.6517L17.5863 70.3532Z" fill="#5A5A5C"/>
<path d="M18.8113 72.4209L17.7082 73.1621L17.8962 73.4424L18.9993 72.7012L18.8113 72.4209Z" fill="#5A5A5C"/>
<path d="M20.2362 74.3579L19.216 75.2097L19.4321 75.469L20.4522 74.6172L20.2362 74.3579Z" fill="#5A5A5C"/>
<path d="M23.6601 77.7305L22.8401 78.7764L23.1055 78.9849L23.9255 77.939L23.6601 77.7305Z" fill="#5A5A5C"/>
<path d="M25.6216 79.1558L24.9153 80.2817L25.201 80.4613L25.9073 79.3355L25.6216 79.1558Z" fill="#5A5A5C"/>
<path d="M27.7154 80.3323L27.1301 81.5256L27.433 81.6745L28.0182 80.4811L27.7154 80.3323Z" fill="#5A5A5C"/>
<path d="M29.9244 81.2954L29.467 82.5435L29.7838 82.6598L30.2412 81.4118L29.9244 81.2954Z" fill="#5A5A5C"/>
<path d="M34.9026 82.564L34.5686 82.5161L34.3804 83.8321L34.7144 83.8799L34.9026 82.564Z" fill="#5A5A5C"/>
<path d="M37.2993 82.7605L36.9621 82.7478L36.9124 84.0763L37.2495 84.0889L37.2993 82.7605Z" fill="#5A5A5C"/>
<path d="M39.7148 82.6965L39.3782 82.7192L39.4674 84.0457L39.804 84.023L39.7148 82.6965Z" fill="#5A5A5C"/>
<path d="M42.0953 82.4029L41.7629 82.4607L41.9902 83.7706L42.3226 83.7128L42.0953 82.4029Z" fill="#5A5A5C"/>
<path d="M46.7176 81.0501L46.4045 81.1758L46.899 82.41L47.2121 82.2843L46.7176 81.0501Z" fill="#5A5A5C"/>
<path d="M48.897 80.0036L48.5989 80.1614L49.2198 81.3371L49.5179 81.1793L48.897 80.0036Z" fill="#5A5A5C"/>
<path d="M50.9522 78.7785L50.6721 78.9666L51.4123 80.0711L51.6923 79.883L50.9522 78.7785Z" fill="#5A5A5C"/>
<path d="M52.8734 77.3152L52.6145 77.5315L53.466 78.5526L53.7249 78.3363L52.8734 77.3152Z" fill="#5A5A5C"/>
<path d="M56.1958 73.8298L55.9875 74.0952L57.0327 74.9169L57.241 74.6515L56.1958 73.8298Z" fill="#5A5A5C"/>
<path d="M57.5664 71.852L57.387 72.1377L58.5123 72.8456L58.6917 72.5599L57.5664 71.852Z" fill="#5A5A5C"/>
<path d="M58.7221 69.7442L58.5735 70.0471L59.7666 70.6334L59.9152 70.3305L58.7221 69.7442Z" fill="#5A5A5C"/>
<path d="M59.6544 67.5196L59.5383 67.8364L60.7862 68.2947L60.9023 67.9779L59.6544 67.5196Z" fill="#5A5A5C"/>
<path d="M62.1051 63.0203L60.7893 62.8318L60.7415 63.1658L62.0573 63.3544L62.1051 63.0203Z" fill="#5A5A5C"/>
<path d="M62.7388 60.4181L61.4075 60.3704L61.3954 60.7084L62.7267 60.7561L62.7388 60.4181Z" fill="#5A5A5C"/>
<path d="M62.26 57.9352L60.9338 58.0242L60.9564 58.3609L62.2825 58.272L62.26 57.9352Z" fill="#5A5A5C"/>
<path d="M61.9433 55.3962L60.634 55.6248L60.692 55.9572L62.0012 55.7287L61.9433 55.3962Z" fill="#5A5A5C"/>
<path d="M59.4329 48.2155L58.2581 48.8367L58.4156 49.1352L59.5904 48.514L59.4329 48.2155Z" fill="#5A5A5C"/>
<path d="M58.1114 46.0453L57.0081 46.7861L57.1959 47.0665L58.2993 46.3257L58.1114 46.0453Z" fill="#5A5A5C"/>
<path d="M56.5682 44.0054L55.5481 44.8572L55.7642 45.1165L56.7843 44.2647L56.5682 44.0054Z" fill="#5A5A5C"/>
<path d="M52.9024 40.4977L52.0813 41.5427L52.3465 41.7515L53.1676 40.7065L52.9024 40.4977Z" fill="#5A5A5C"/>
<path d="M50.804 39.0361L50.0979 40.1621L50.3836 40.3417L51.0898 39.2156L50.804 39.0361Z" fill="#5A5A5C"/>
<path d="M48.5689 37.8076L47.9836 39.001L48.2865 39.1498L48.8717 37.9565L48.5689 37.8076Z" fill="#5A5A5C"/>
<path d="M46.2252 36.826L45.7678 38.074L46.0846 38.1903L46.542 36.9423L46.2252 36.826Z" fill="#5A5A5C"/>
<path d="M34.5084 78.2096L34.3509 78.835C34.2039 78.6928 34.0217 78.5922 33.8231 78.5435C33.7068 78.5112 33.5846 78.5066 33.4661 78.5298C33.3477 78.5531 33.2363 78.6036 33.1407 78.6775C32.9206 78.8604 32.7681 79.1119 32.7077 79.3918C32.8147 79.2946 32.9451 79.2272 33.0862 79.1961C33.2272 79.165 33.3739 79.1714 33.5118 79.2145C33.6407 79.2411 33.762 79.2961 33.867 79.3755C33.972 79.455 34.058 79.5569 34.1186 79.6738C34.2361 79.9356 34.2553 80.231 34.1728 80.5058C34.1382 80.6644 34.0719 80.8145 33.9779 80.9468C33.8838 81.0791 33.764 81.191 33.6256 81.2757C33.4872 81.3601 33.3328 81.4146 33.1721 81.4359C33.0115 81.4572 32.8482 81.4447 32.6927 81.3993C32.5194 81.3632 32.3571 81.2866 32.2191 81.1756C32.0811 81.0646 31.9714 80.9225 31.8989 80.7608C31.7523 80.3576 31.7427 79.9173 31.8715 79.5081C31.9728 78.9963 32.2454 78.5343 32.6443 78.1985C32.8205 78.0607 33.027 77.967 33.2467 77.9251C33.4664 77.8832 33.6929 77.8943 33.9074 77.9576C34.1229 77.9992 34.3276 78.085 34.5084 78.2096ZM33.1288 79.7092C33.0675 79.691 33.0029 79.6871 32.9399 79.6977C32.8769 79.7084 32.8172 79.7333 32.7653 79.7705C32.654 79.8542 32.5767 79.9753 32.5476 80.1115C32.5063 80.2631 32.5138 80.4239 32.569 80.5709C32.5902 80.6345 32.6274 80.6915 32.6771 80.7364C32.7268 80.7813 32.7872 80.8126 32.8525 80.8273C32.9148 80.8457 32.9805 80.8488 33.0442 80.8364C33.108 80.824 33.1677 80.7964 33.2185 80.756C33.3334 80.6549 33.4121 80.519 33.4425 80.369C33.5325 80.0116 33.43 79.7904 33.1275 79.7141L33.1288 79.7092Z" fill="#5A5A5C"/>
<path d="M56.4526 66.188L56.6176 65.5327C56.8061 65.7607 57.0642 65.9204 57.3522 65.9873C57.51 66.0356 57.6791 66.032 57.8347 65.9771C57.897 65.9488 57.9518 65.9063 57.9946 65.8529C58.0373 65.7995 58.0669 65.7367 58.0809 65.6697C58.1003 65.5989 58.1004 65.5242 58.0811 65.4534C58.0618 65.3826 58.0239 65.3183 57.9713 65.2672C57.8265 65.1353 57.6489 65.0449 57.4571 65.0055L57.1496 64.9279L57.2946 64.3521L57.5773 64.4234C58.0236 64.536 58.278 64.4471 58.353 64.1493C58.428 63.8515 58.2894 63.6898 57.9621 63.6072C57.7219 63.551 57.4701 63.5705 57.2414 63.663L57.3964 63.0474C57.6893 62.9902 57.9915 63.0014 58.2794 63.0802C58.5733 63.1365 58.8393 63.2911 59.0339 63.5187C59.1089 63.6149 59.1604 63.7273 59.1843 63.847C59.2081 63.9667 59.2038 64.0903 59.1715 64.208C59.1333 64.41 59.0207 64.5903 58.856 64.713C58.6912 64.8357 58.4864 64.8919 58.2821 64.8705C58.4938 64.9406 58.6729 65.0852 58.7861 65.2775C58.8365 65.365 58.8691 65.4616 58.8819 65.5618C58.8947 65.662 58.8875 65.7638 58.8607 65.8611C58.8306 66.007 58.7661 66.1437 58.6727 66.2596C58.5793 66.3756 58.4596 66.4676 58.3236 66.528C57.9926 66.6615 57.6254 66.6753 57.2854 66.567C56.9814 66.5094 56.6958 66.3794 56.4526 66.188Z" fill="#5A5A5C"/>
<path d="M16.5595 56.1645L16.7158 55.5441C16.8767 55.7158 17.0857 55.8348 17.3154 55.8854C17.4294 55.9208 17.55 55.9289 17.6677 55.9091C17.7854 55.8893 17.8967 55.842 17.9928 55.7713C18.206 55.5905 18.3506 55.3417 18.4023 55.0669C18.2994 55.1584 18.1743 55.2213 18.0395 55.2494C17.9048 55.2774 17.765 55.2696 17.6342 55.2268C17.5031 55.1984 17.3797 55.1419 17.2725 55.0611C17.1654 54.9803 17.0771 54.8771 17.0137 54.7587C16.8782 54.5043 16.8489 54.2065 16.9322 53.9305C16.9655 53.768 17.0316 53.6142 17.1266 53.4783C17.2216 53.3425 17.3434 53.2276 17.4844 53.1407C17.6293 53.0602 17.7889 53.0097 17.9536 52.9923C18.1184 52.9749 18.285 52.991 18.4434 53.0395C18.6124 53.0765 18.7702 53.1531 18.9038 53.263C19.0375 53.3729 19.1432 53.513 19.2124 53.6717C19.3599 54.08 19.3682 54.5258 19.236 54.9394C19.1407 55.451 18.8769 55.916 18.4868 56.2601C18.3167 56.392 18.1174 56.4809 17.9058 56.5194C17.6942 56.5579 17.4764 56.5448 17.2709 56.4813C17.0138 56.4281 16.7711 56.3201 16.5595 56.1645ZM18.2625 53.5904C18.2002 53.5743 18.1351 53.5729 18.0722 53.5863C18.0093 53.5998 17.9504 53.6277 17.9002 53.6679C17.783 53.765 17.7026 53.8994 17.6725 54.0486C17.6273 54.1926 17.6349 54.348 17.6939 54.4869C17.7226 54.5463 17.7646 54.5983 17.8165 54.6389C17.8685 54.6795 17.9291 54.7075 17.9936 54.7209C18.0536 54.7375 18.1165 54.7404 18.1777 54.7294C18.2389 54.7183 18.2969 54.6936 18.3472 54.657C18.4572 54.5818 18.5335 54.4666 18.5599 54.3359C18.6061 54.1769 18.6008 54.0074 18.5448 53.8517C18.5232 53.787 18.4856 53.7289 18.4353 53.683C18.385 53.637 18.3238 53.6047 18.2575 53.5891L18.2625 53.5904Z" fill="#5A5A5C"/>
<path d="M42.2488 42.153L40.0967 41.61L40.2467 41.0143L40.9409 41.1895L41.4759 39.065L40.7132 39.0362L40.8657 38.4306L42.4283 38.5082L41.7046 41.3822L42.4038 41.5586L42.2488 42.153Z" fill="#5A5A5C"/>
<path d="M43.7678 41.855L45.1513 42.2041L44.9901 42.8444L42.7735 42.2852L42.921 41.6995L44.149 41.0115C44.3429 40.9009 44.5245 40.7697 44.6905 40.6203C44.7975 40.5196 44.8739 40.3906 44.9107 40.2482C44.9907 39.9306 44.8671 39.7093 44.5399 39.6267C44.2237 39.5548 43.8922 39.6028 43.6094 39.7615L43.7631 39.151C44.1065 39.034 44.4766 39.0209 44.8274 39.1133C45.1277 39.1706 45.3958 39.338 45.5793 39.5828C45.6543 39.6972 45.7033 39.8266 45.723 39.962C45.7427 40.0974 45.7325 40.2354 45.6931 40.3665C45.6059 40.6046 45.4694 40.8217 45.2928 41.0036C45.1161 41.1855 44.9032 41.3282 44.6678 41.4223L43.7678 41.855Z" fill="#5A5A5C"/>
<path d="M35.2349 86.8235L35.3507 88.5833L33.8135 87.7153L35.2349 86.8235Z" fill="#5A5A5C"/>
<path d="M34.6831 85.8408L33.9709 86.2837L35.4763 88.7091L36.1885 88.2663L34.6831 85.8408Z" fill="#5A5A5C"/>
<path d="M45.7442 44.2118C45.7442 44.2118 50.3542 55.2258 41.9198 72.7201C41.9198 72.7201 41.8131 74.0235 42.9562 72.9816C44.0993 71.9397 52.1028 56.5961 50.3393 46.9074C48.5757 37.2187 44.9353 41.1622 45.7442 44.2118Z" fill="white"/>
<path d="M51.0695 48.5699C51.0695 48.5699 54.614 55.7305 49.7673 67.7107C49.7673 67.7107 49.7532 68.5835 50.4666 67.8449C51.1799 67.1063 55.8254 56.5746 54.2378 50.1875C52.6502 43.8005 50.4023 46.5697 51.0695 48.5699Z" fill="white"/>
<path d="M70.3502 45.3208C70.3067 45.3877 70.2432 45.4391 70.1687 45.4678C70.0943 45.4964 70.0127 45.5007 69.9356 45.4802C65.8257 44.3052 62.0879 42.0894 59.0831 39.0465C55.4822 35.377 52.9763 32.4483 51.6569 28.4517C51.63 28.3738 51.6292 28.2893 51.6547 28.2109C51.6801 28.1326 51.7304 28.0646 51.7979 28.0175C54.3688 26.185 58.0968 25.7055 61.7401 26.7145C64.2079 27.3921 66.4625 28.6877 68.2915 30.4791C72.826 34.9649 72.8416 41.6258 70.3502 45.3208Z" fill="#5A5A5C"/>
<path d="M69.7473 46.045C65.5519 44.8377 61.7351 42.5752 58.6606 39.4732C54.7564 35.5001 52.3881 32.6114 51.091 28.6521C51.027 28.4549 51.0269 28.2425 51.0908 28.0453C51.1546 27.8481 51.2792 27.6761 51.4466 27.554C54.1691 25.6014 58.0608 25.0999 61.8863 26.1601C64.4512 26.8721 66.7927 28.226 68.6904 30.0941C70.878 32.2417 72.2403 35.0917 72.5383 38.1443C72.8379 40.7615 72.2397 43.4029 70.842 45.635L70.7587 45.7565L70.7339 45.7502C70.6165 45.878 70.4673 45.9722 70.3016 46.0232C70.1358 46.0741 69.9595 46.08 69.7907 46.0401L69.7473 46.045ZM52.2535 28.4333C53.4892 32.0921 55.761 34.8614 59.4932 38.6591C62.3923 41.5818 65.9808 43.7255 69.9269 44.892C72.2084 41.3605 72.0754 35.0818 67.8528 30.9492C66.0965 29.2226 63.9316 27.9699 61.5604 27.3079C58.1539 26.3429 54.6766 26.7694 52.256 28.4234L52.2535 28.4333Z" fill="#5A5A5C"/>
<path d="M58.0514 37.5982L61.3547 34.1767L63.238 36.4996L60.1183 39.8829L58.0514 37.5982Z" fill="white"/>
<path d="M69.5969 45.1307C69.5969 45.1307 64.0444 34.0901 52.2666 28.3152C52.2666 28.3152 60.4895 23.3054 68.0555 30.8947C68.0593 30.8798 73.8669 37.619 69.5969 45.1307Z" fill="#5A5A5C"/>
<path d="M61.0706 34.1529L56.8836 30.8212C54.9486 29.6044 53.1818 28.6413 51.9732 28.2888C50.7646 27.9364 53.9558 33.1074 53.9558 33.1074L57.838 37.5447L58.2358 37.1172L58.1442 36.999L59.0492 35.9393L61.0706 34.1529ZM53.7052 29.2854C53.7052 29.2854 56.0129 30.1739 56.344 30.8487C56.6171 31.398 57.5182 35.5266 57.9066 36.7068C56.9714 35.4572 54.0957 30.6879 53.7052 29.2854Z" fill="#5A5A5C"/>
<path d="M69.4346 41.9062C69.5544 42.1423 69.6557 42.3896 69.778 42.6369C69.9003 42.8842 69.9693 43.1339 70.0544 43.3824C70.2216 43.8846 70.326 44.4057 70.3651 44.9336C70.3947 45.0435 70.4177 45.1551 70.434 45.2677C72.8721 41.5541 72.8229 34.9639 68.3093 30.5414C66.4804 28.75 64.2257 27.4543 61.7579 26.7768C61.6389 26.7467 56.7525 26.5697 54.037 28.1176C54.7208 28.3879 55.3871 28.7006 56.0321 29.0538C56.405 29.2482 56.7519 29.4413 57.0802 29.6456C57.77 29.1835 58.5475 28.8686 59.3642 28.7204C60.1809 28.5723 61.0193 28.5941 61.8272 28.7845C63.8541 29.3223 63.8008 30.56 62.6611 30.4994C61.5214 30.4389 59.6782 30.4912 59.5989 31.0783C59.5827 31.1428 59.5677 31.2023 59.5775 31.2682C61.0113 32.2613 62.371 33.3577 63.6455 34.5488C64.1321 35.0041 64.6086 35.4781 65.0666 35.9632C65.1105 35.9291 65.1413 35.8809 65.1537 35.8268C65.2787 35.3304 64.8985 31.8136 65.8423 31.8353C66.7862 31.857 68.2662 32.9748 68.707 35.9156C68.9811 37.8008 68.54 38.8614 67.8483 39.3257C68.4436 40.143 68.974 41.0059 69.4346 41.9062Z" fill="#5A5A5C"/>
<path d="M69.6185 45.6747C69.0983 43.3421 66.1551 39.49 61.9394 35.6232C57.8475 31.872 53.7312 29.181 51.4648 28.757L51.6629 27.635C54.6894 28.1822 59.3499 31.6862 62.7287 34.7718C67.1796 38.8564 70.1895 42.8413 70.76 45.4348L69.6185 45.6747Z" fill="#5A5A5C"/>
<path d="M60.3027 40.4892L59.4597 39.6483L62.7391 36.4055C62.2661 35.98 61.5442 35.3492 61.0935 34.9609L58.112 38.0888L57.2615 37.2777L61.0136 33.3306L61.4457 33.7089L61.7887 34.0013C62.7186 34.8114 63.7352 35.6961 64.0137 35.9933L64.4098 36.41L60.3027 40.4892Z" fill="#5A5A5C"/>
<path d="M63.736 36.9686C63.4221 37.0002 63.0698 37.0592 62.731 37.1268C62.3923 37.1944 62.0548 37.2782 61.721 37.3682C61.0428 37.5541 60.3868 37.8134 59.7648 38.1416C60.0218 37.8914 60.2953 37.6588 60.5835 37.4454C60.8753 37.2287 61.1759 37.0195 61.4863 36.8338C61.7968 36.6482 62.1072 36.4626 62.4387 36.2981C62.7702 36.1336 63.0892 35.9766 63.4542 35.8258L63.736 36.9686Z" fill="#5A5A5C"/>
<path d="M67.1969 40.3179C65.2725 38.0955 63.432 36.1688 63.432 36.1688L63.2378 36.4999L60.1181 39.8832C60.6495 40.4989 61.2531 41.0483 61.9159 41.5194C62.996 42.2775 66.3493 44.4381 69.5548 45.3842L70.1527 45.3767C69.4457 43.5422 68.4476 41.834 67.1969 40.3179ZM68.2176 43.5528C67.8065 43.8661 65.3265 42.2585 63.8323 40.8204C65.1783 41.2761 68.63 43.2345 68.2176 43.5528Z" fill="#5A5A5C"/>
</svg>
