<svg width="18" height="22" viewBox="0 0 18 22" fill="none" xmlns="http://www.w3.org/2000/svg">
<path d="M11.4711 20.2069C10.1477 20.545 8.9287 20.4728 7.81422 19.9902C6.69825 19.5018 5.71913 18.6322 4.87687 17.3814C4.03311 16.1247 3.36225 14.5183 2.86429 12.5619C2.36931 10.6173 2.19259 8.89394 2.33413 7.39182C2.48003 5.88234 2.92609 4.64551 3.67232 3.68134C4.42291 2.70981 5.45408 2.05649 6.76581 1.72138C8.07755 1.38627 9.29215 1.46586 10.4096 1.96015C11.5314 2.44709 12.5142 3.31888 13.358 4.57553C14.2061 5.82483 14.8777 7.42178 15.3726 9.3664C15.8706 11.3227 16.0496 13.0549 15.9095 14.5629C15.768 16.065 15.3241 17.2981 14.5779 18.2623C13.8301 19.2206 12.7946 19.8688 11.4711 20.2069ZM10.9791 18.274C12.2909 17.9389 13.1488 17.046 13.5529 15.5954C13.957 14.1447 13.8609 12.2479 13.2645 9.90497C12.8679 8.34694 12.3633 7.0629 11.7507 6.05286C11.144 5.04133 10.4572 4.32785 9.69037 3.91241C8.92939 3.49548 8.11555 3.39773 7.24887 3.61914C5.94884 3.95126 5.09609 4.85219 4.6906 6.32194C4.28362 7.78583 4.37757 9.6863 4.97244 12.0234C5.36902 13.5814 5.86993 14.8632 6.47518 15.8689C7.08042 16.8746 7.76279 17.583 8.52228 17.994C9.28763 18.4036 10.1066 18.497 10.9791 18.274Z" fill="#FCC947"/>
</svg>
