<svg width="103" height="112" viewBox="0 0 103 112" fill="none" xmlns="http://www.w3.org/2000/svg">
<path d="M78.2441 60.3719C82.1055 46.1175 73.6923 31.4294 59.4522 27.5642C45.2121 23.6989 30.462 32.1977 26.6527 46.4663C24.7605 53.555 25.8921 60.7364 29.2726 66.6381C31.9029 71.2302 33.3229 76.4178 33.3164 81.7082L33.3166 89.9686L50.2145 94.5552L54.1567 87.799C56.8753 83.1327 60.8442 79.3238 65.55 76.667C71.5702 73.2889 76.294 67.5709 78.2441 60.3719Z" fill="#FFF405"/>
<path d="M43.3802 102.388L35.1462 100.153C32.8141 99.5204 31.2741 97.2543 31.7373 95.028L33.3361 86.3896L52.0246 91.3363L48.9088 99.6889C48.1755 101.828 45.7123 103.021 43.3802 102.388Z" fill="#59595B"/>
<path d="M49.346 94.5576C44.0748 93.3647 38.9082 91.6825 33.6371 90.4895C33.161 90.3883 33.02 91.0636 33.4689 91.2135C38.6342 92.7974 43.9596 93.8931 49.1249 95.477C49.7076 95.6491 49.9393 94.6906 49.346 94.5576Z" fill="#808183"/>
<path d="M48.7304 96.8266C43.4593 95.6337 38.2927 93.9515 33.0215 92.7586C32.5455 92.6573 32.4045 93.3327 32.8534 93.4825C38.0186 95.0664 43.3441 96.1621 48.5093 97.746C49.0921 97.9182 49.3237 96.9597 48.7304 96.8266Z" fill="#808183"/>
<path d="M65.1095 15.0005C64.6573 16.6698 62.1533 22.4024 61.072 22.1089C59.9776 21.8118 60.7227 15.6019 61.1749 13.9325C61.6271 12.2632 62.8769 11.1604 63.9583 11.4539C65.0361 11.7605 65.5581 13.3442 65.1095 15.0005Z" fill="#FFF405"/>
<path d="M87.2015 30.868C85.6445 31.6074 80.4604 35.1004 80.9378 36.1261C81.4318 37.1422 87.3985 35.3036 88.9555 34.5642C90.5125 33.8248 91.3759 32.3931 90.8819 31.3769C90.4175 30.3549 88.762 30.1155 87.2015 30.868Z" fill="#FFF405"/>
<path d="M89.5632 60.1539C87.852 59.9134 81.8516 58.1587 82.0146 57.0409C82.1645 55.9196 88.4298 55.8701 90.1279 56.107C91.839 56.3475 93.0944 57.4443 92.9315 58.5621C92.7721 59.6668 91.2648 60.3778 89.5632 60.1539Z" fill="#FFF405"/>
<path d="M36.8793 15.0666C37.9031 16.4506 40.8852 21.9642 39.9745 22.641C39.0639 23.3179 34.6354 18.9097 33.5986 17.5223C32.5749 16.1384 32.4671 14.471 33.3777 13.7942C34.2884 13.1173 35.852 13.6958 36.8793 15.0666Z" fill="#FFF405"/>
<path d="M17.788 36.0798C19.3861 36.7376 25.4501 38.2575 25.8736 37.2105C26.3101 36.1669 20.928 32.956 19.3429 32.3017C17.7449 31.6439 16.1079 31.9556 15.6844 33.0027C15.2644 34.0368 16.203 35.4256 17.788 36.0798Z" fill="#FFF405"/>
<path d="M60.0336 69.5264C59.3658 68.6871 58.9394 67.7313 58.7141 66.7042C59.9666 65.7981 60.7909 64.3557 61.3654 62.9576C61.7099 62.0991 61.9761 61.2193 62.2294 60.3361C62.4756 59.4788 62.5526 58.7297 61.9809 58.0005C61.4567 57.3542 60.4838 57.5381 59.8615 57.8733C59.1434 58.2524 58.6331 59.0519 58.2173 59.7091C57.3787 61.0495 56.9512 62.6275 56.8351 64.1921C56.785 64.7385 56.8035 65.2895 56.8517 65.8346C56.4092 66.0225 55.9322 66.1311 55.4338 66.1638C53.9031 66.2383 53.0573 65.1267 52.7309 63.7501C52.6797 63.5262 52.632 63.2892 52.6008 63.0427C52.7993 62.7746 52.9848 62.5029 53.1537 62.2408C54.0244 60.9371 54.6877 59.521 55.2112 58.0531C55.6511 56.8424 56.0799 55.3628 55.0957 54.2976C54.7814 53.9603 54.289 54.0226 53.9662 54.285C51.5633 56.2369 50.7984 59.4734 50.991 62.4798C50.4935 63.1288 49.938 63.734 49.3599 64.3191C48.712 64.9553 47.5638 65.8897 46.5864 65.4704C45.6872 65.0723 45.2495 63.6934 44.9819 62.8228C44.788 62.1961 44.6698 61.548 44.6239 60.8915C44.8259 60.6104 45.0315 60.3162 45.2205 60.0314C45.9671 58.876 46.5489 57.6059 47.0135 56.304C47.405 55.2202 47.8514 53.6753 46.7977 52.8153C46.4883 52.5633 45.9636 52.4349 45.6682 52.8027C43.9734 54.8768 43.0619 57.4155 43.0446 60.1128C43.0459 60.2112 43.0507 60.2965 43.0556 60.3818C41.8208 62.0488 40.2305 63.4792 38.4763 64.5851C37.6838 65.084 38.3865 66.3108 39.198 65.845C40.7453 64.9349 42.1265 63.8118 43.3215 62.4981C43.4359 63.0052 43.5834 63.4932 43.7606 63.9753C44.2585 65.2865 44.9696 66.5856 46.372 67.0362C47.6798 67.4752 49.0649 66.6471 50.0465 65.8635C50.5124 65.486 50.9628 65.0622 51.3647 64.6113C51.7335 65.8314 52.449 66.9077 53.6799 67.4238C54.8065 67.9116 56.0519 67.8576 57.1927 67.4672C57.4915 68.5844 57.9879 69.6431 58.6535 70.5938C59.3489 71.6926 60.8449 70.5586 60.0336 69.5264ZM54.0627 56.3553C53.9488 56.9824 53.597 57.7129 53.4685 58.0841C53.2197 58.7446 52.9152 59.4039 52.5787 60.0266C52.7827 58.6539 53.2508 57.3389 54.0627 56.3553ZM59.0421 61.879C59.2673 61.2541 59.6098 60.6611 59.9808 60.1177C60.1462 59.8686 60.3471 59.6431 60.5706 59.4378C60.5871 59.4283 60.6605 59.3642 60.7302 59.3131C60.7327 59.3558 60.728 59.4245 60.7068 59.5028C60.3611 61.089 59.7715 62.749 58.8867 64.1049C58.7721 64.2698 58.6575 64.4347 58.5334 64.583C58.5546 63.6787 58.7368 62.7482 59.0421 61.879Z" fill="#ACAFBC"/>
<path d="M62.5343 66.1308C57.5303 73.7608 52.3805 81.3093 47.0435 88.723C46.4102 89.6152 47.759 90.6253 48.4053 89.7367C53.7328 82.3064 58.8566 74.7509 63.7219 67.0132C64.2026 66.2196 63.0576 65.3348 62.5343 66.1308Z" fill="#ACAFBC"/>
<path d="M37.7406 58.8406C37.6154 67.977 37.3363 77.1135 36.812 86.2256C36.7544 87.316 38.4382 87.451 38.4958 86.3606C38.9975 77.2284 39.26 68.1014 39.2053 58.9582C39.198 58.0041 37.7498 57.8771 37.7406 58.8406Z" fill="#ACAFBC"/>
</svg>
