<svg width="131" height="111" viewBox="0 0 131 111" fill="none" xmlns="http://www.w3.org/2000/svg">
<path d="M28.7151 21.834C28.7151 21.834 28.7123 21.8192 28.7151 21.834C28.5726 21.739 28.2431 21.8795 28.0182 21.9997C27.8894 22.0553 27.7634 22.1257 27.6702 22.2051C23.4625 24.9059 19.5774 28.3108 16.1709 31.9448C13.2404 35.0726 10.5936 38.5441 8.73463 42.3995C6.97305 46.0367 5.67652 50.473 6.30855 54.5355C6.45837 55.5489 6.96636 56.5696 7.70973 57.284C9.16085 58.6891 11.2227 58.4429 12.998 57.8384C12.9038 59.8341 13.2683 62.6762 15.2488 63.6108C17.1786 64.5246 19.619 63.2699 21.2543 62.2632C23.0006 61.1891 24.2952 59.8651 25.2832 58.0794C27.4958 54.0482 28.2017 49.2052 28.6807 44.7127C29.205 39.8129 29.3026 34.8731 29.2031 29.9562C29.1477 27.2689 29.0596 24.5726 28.8341 21.8876C28.8284 21.8581 28.7927 21.8343 28.7151 21.834Z" fill="#5B5B5D"/>
<path d="M104.48 43.6541C101.822 35.6153 95.4232 28.5309 87.4429 25.3709C80.3375 22.5626 72.6973 23.3991 65.2979 24.3576C61.8314 24.7993 58.3108 25.2822 54.8172 25.0239C53.8566 24.9495 52.5613 24.9092 51.7912 24.5372C51.1935 24.2544 50.6292 23.9038 50.0315 23.6211C44.5518 20.9577 38.1837 19.2329 32.0474 20.1459C28.2933 20.7047 24.8872 22.499 22.4007 25.3569C19.4953 28.6946 17.8527 33.1059 16.907 37.3515C15.0646 45.6953 16.5542 54.3439 20.2765 61.9468C24.7151 71.0052 31.9669 78.4913 40.0823 84.4305C42.4145 86.1401 44.8491 87.7379 47.3236 89.2207C48.0533 93.387 48.7801 97.5385 49.4948 101.708C49.5972 102.316 49.6997 102.925 49.8142 103.516C49.8628 103.767 50.7949 103.694 50.9743 103.659C51.961 103.468 52.9327 103.28 53.9194 103.089C53.9344 103.086 54.1287 103.048 54.1173 102.989C53.9859 99.7491 53.8517 96.4945 53.7203 93.2547C54.3842 95.6402 55.048 98.0257 55.7119 100.411C55.8798 101.038 56.0599 101.647 56.2278 102.273C56.2943 102.536 57.1935 102.454 57.3879 102.416C58.554 102.191 59.7052 101.968 60.8713 101.742C60.8862 101.739 61.0806 101.701 61.0691 101.642C60.6636 99.0684 60.258 96.495 59.8375 93.9244C65.7263 94.7763 71.8501 93.5591 77.4851 91.9001C82.8118 90.3314 87.982 88.1952 92.9697 85.7572C93.5362 85.4788 94.1027 85.2004 94.6514 84.9101C94.7077 87.8425 94.7611 90.7602 94.8174 93.6926C94.8184 93.9377 95.828 93.8647 95.9775 93.8357C96.5905 93.717 97.2034 93.5982 97.8313 93.4765C98.1004 93.4244 98.6587 93.4235 98.8664 93.2147C99.035 93.044 99.1193 92.5985 99.2045 92.398C99.8786 90.6731 100.505 88.9421 101.081 87.1903C103.224 80.7197 104.879 74.0525 105.786 67.2849C106.836 59.4933 106.973 51.2346 104.48 43.6541Z" fill="#B5C0C6"/>
<path d="M68.2826 42.7272C66.5713 41.0199 64.6771 39.4093 62.6677 38.0051C64.4725 38.5139 66.3833 38.8488 68.1789 38.6695C69.4875 38.5386 70.6632 37.8816 70.4574 36.4191C70.2328 34.6997 69.0676 33.0093 67.962 31.7058C65.2716 28.548 61.4501 26.4371 57.6661 24.8401C53.8999 23.2551 49.9569 22.1182 45.955 21.2379C43.8155 20.7633 41.6547 20.3389 39.4657 20.0885C39.2035 20.0167 38.9494 20.0659 38.9026 20.3049C38.1087 25.3336 37.72 30.4524 37.5256 35.5336C37.3472 40.1364 37.3774 44.7755 37.7572 49.3775C38.1411 53.8407 38.8262 58.3376 40.2837 62.5775C41.5284 66.1994 43.4153 69.7736 46.4639 72.2182C49.3671 74.553 53.4567 75.6462 57.1752 75.0636C64.6121 73.8986 62.5245 64.6453 60.9681 59.7348C60.0253 56.7902 58.8582 53.889 57.5382 51.0789C59.5558 53.6466 61.9408 56.1891 64.9334 57.4642C66.4237 58.1105 68.1321 58.362 69.6752 57.6798C71.389 56.9185 72.7288 55.1873 73.1913 53.4114C74.2162 49.3343 70.9561 45.3977 68.2826 42.7272Z" fill="#5B5B5D"/>
<path d="M17.0908 40.0752C17.0908 40.0752 16.0449 70.4622 28.3129 97.9936L31.2581 97.4229C31.2581 97.4229 24.5484 69.9183 29.9114 60.3711L17.0908 40.0752Z" fill="#B5C0C6"/>
<path d="M19.8524 39.2642C20.5212 39.1347 20.9147 38.2623 20.7313 37.3157C20.5478 36.3691 19.857 35.7068 19.1882 35.8364C18.5194 35.966 18.1259 36.8384 18.3093 37.785C18.4927 38.7315 19.1836 39.3938 19.8524 39.2642Z" fill="white"/>
<path d="M29.3174 39.3465C30.5724 39.1033 31.395 37.9007 31.1547 36.6604C30.9144 35.42 29.7021 34.6117 28.4471 34.8549C27.1921 35.098 26.3695 36.3006 26.6098 37.541C26.8501 38.7813 28.0624 39.5897 29.3174 39.3465Z" fill="white"/>
<path d="M29.2231 37.8933C29.1032 37.5946 28.9187 37.5231 28.8112 37.5286C28.7008 37.5193 28.5065 37.557 28.3608 37.8458C28.2698 38.0167 28.2173 38.2262 28.2005 38.4594C28.154 39.0203 28.3595 39.4403 28.6878 39.4534C28.7205 39.4624 28.7504 39.4566 28.7803 39.4508C29.0494 39.3986 29.2734 39.0333 29.2985 38.5226C29.3154 38.2894 29.2874 38.0648 29.2231 37.8933Z" fill="#5B5B5D"/>
<path d="M19.6794 37.6421C19.3661 37.6262 19.1002 38.015 19.0687 38.5729C19.0518 38.8061 19.0798 39.0307 19.1441 39.2022C19.264 39.5009 19.4485 39.5724 19.556 39.5669C19.5859 39.5611 19.6187 39.5701 19.6486 39.5643C19.7532 39.544 19.8942 39.4707 20.0064 39.2497C20.0974 39.0788 20.1499 38.8693 20.1668 38.6361C20.1982 38.0781 19.9928 37.6581 19.6794 37.6421Z" fill="#5B5B5D"/>
<path d="M99.1016 36.234C100.47 39.3721 102.149 42.4347 104.048 45.2706C105.856 47.9557 109.616 53.4356 113.583 51.3333C114.666 50.7556 115.447 49.7457 116.038 48.7115C117.053 46.9052 117.64 44.8906 118.107 42.8992C118.203 42.5127 117.437 42.7224 117.366 42.9968C116.957 44.7315 116.459 46.4837 115.673 48.1077C115.196 49.0892 114.578 50.1441 113.645 50.7695C112.179 51.7739 110.455 50.9583 109.2 50.0057C107.414 48.6348 106.03 46.7722 104.788 44.9279C103.544 43.0689 102.437 41.1217 101.4 39.1305C100.851 38.0566 100.316 36.9797 99.8239 35.8794C99.7218 35.5926 98.9816 35.9353 99.1016 36.234Z" fill="#B5C0C6"/>
<path d="M119.669 36.5414C119.507 36.588 119.476 36.7473 119.442 36.8919C119.368 37.1515 119.312 37.4229 119.223 37.6854C119.097 38.1544 118.953 38.6116 118.809 39.0688C118.867 38.1683 118.91 37.2708 118.894 36.3849C118.887 36.1103 118.954 35.2542 118.542 35.2113C118.322 35.1928 118.204 35.3842 118.095 35.5433C117.822 35.9793 117.669 36.4689 117.531 36.9556C117.457 37.2152 117.386 37.4895 117.327 37.7462C117.322 37.6399 117.332 37.5307 117.327 37.4243C117.32 37.2265 117.299 35.7588 116.751 36.371C116.597 36.5387 116.544 36.8249 116.473 37.0225C116.329 37.4797 116.218 37.9458 116.11 38.4267C115.829 39.5389 115.699 40.7904 115.902 41.9162C116.03 42.5811 116.317 43.2613 116.966 43.565C117.495 43.815 118.178 43.8205 118.677 43.5094C119.814 42.8138 119.969 40.9748 120.051 39.7939C120.092 39.1267 120.098 38.4358 120.076 37.7654C120.067 37.476 120.072 37.1837 120.018 36.9029C120.013 36.7198 119.914 36.4478 119.669 36.5414Z" fill="#5B5B5D"/>
<path d="M34.6105 16.154C34.1967 16.7401 33.7978 17.3233 33.384 17.9093C33.2914 17.1914 33.1839 16.4764 33.0913 15.7585C33.0713 15.6551 32.7344 15.5977 32.6918 15.698C32.3969 16.3376 32.1021 16.9773 31.8072 17.617C31.6062 17.38 31.4201 17.1401 31.2162 16.8883C31.1748 16.835 30.7874 16.7568 30.8103 16.875C30.8784 17.3064 30.9643 17.7496 31.0323 18.181C31.157 18.9847 31.1109 19.8674 31.9281 20.3223C32.3114 20.5393 32.7891 20.5233 33.1613 20.2826C33.6146 19.9802 33.8967 19.4349 34.1305 18.9604C34.3828 18.421 34.5816 17.8459 34.7505 17.2766C34.8548 16.9345 34.9442 16.5953 35.0158 16.2441C35.0349 16.1025 34.6589 16.0833 34.6105 16.154Z" fill="#5B5B5D"/>
<path d="M88.8759 84.4808C88.9274 84.7467 89.6946 94.4705 89.6946 94.4705L92.1016 94.0041L94.8286 80.8593L88.8759 84.4808Z" fill="#92A0A8"/>
<path d="M17.2322 50.0732C18.9556 50.3219 23.5268 52.3795 26.1565 50.2603L17.2322 50.0732Z" fill="white"/>
<path d="M23.7085 54.8431L17.7809 54.3513C17.7809 54.3513 20.3797 56.3159 23.7085 54.8431Z" fill="white"/>
<path d="M22.6745 58.0634L18.0266 58.4121C18.0117 58.415 20.4737 59.5936 22.6745 58.0634Z" fill="white"/>
<path d="M22.4828 61.3965L18.7303 62.1235C18.7303 62.1235 20.2822 62.9282 22.4828 61.3965Z" fill="white"/>
<path d="M23.2497 65.3564L18.9739 66.1848C19.4972 66.0834 21.5873 66.7838 23.2497 65.3564Z" fill="white"/>
<path d="M22.152 69.6933L19.6934 69.8933C19.6934 69.8933 20.4231 70.8573 22.152 69.6933Z" fill="white"/>
<path d="M22.4983 72.9217L20.3604 73.3359C20.3604 73.3359 21.0356 74.0188 22.4983 72.9217Z" fill="white"/>
<path d="M23.0619 75.8324L20.924 76.2466C21.7164 76.0931 22.0858 76.5588 23.0619 75.8324Z" fill="white"/>
<path d="M24.0605 78.1067L21.3844 78.6252C21.3844 78.6252 23.6742 78.9953 24.0605 78.1067Z" fill="white"/>
<path d="M24.7241 81.5347L22.5863 81.9489C22.5713 81.9518 23.5334 82.5944 24.7241 81.5347Z" fill="white"/>
<path d="M25.8105 84.3443L23.6726 84.7585C23.6726 84.7585 25.1729 85.2969 25.8105 84.3443Z" fill="white"/>
<path d="M26.3741 87.255L24.2362 87.6692C24.2362 87.6692 25.4674 88.2597 26.3741 87.255Z" fill="white"/>
<path d="M26.9391 90.1661L25.2878 90.2097C25.2878 90.2097 26.0325 91.1708 26.9391 90.1661Z" fill="white"/>
<path d="M28.0406 92.972L26.4409 93.282C26.4409 93.282 27.6572 93.8754 28.0406 92.972Z" fill="white"/>
<path d="M31.4546 64.0117C31.259 63.4824 30.8264 63.091 30.229 63.1301C29.2941 63.1886 28.7601 63.8746 28.3984 64.6499C27.5628 66.4214 26.5319 67.9855 25.1561 69.3711C24.9093 69.6182 23.3093 71.0473 24.0473 71.3336C24.5323 71.5155 25.4739 71.0112 25.8903 70.8385C27.1814 70.2971 28.4312 69.7023 29.4898 68.7614C30.702 67.6527 32.1 65.7416 31.4546 64.0117Z" fill="white"/>
<path d="M52.3944 101.376C52.154 101.576 51.9991 101.897 51.8919 102.224C51.6549 101.642 51.2684 101.088 50.7137 101.747C50.2976 102.242 50.1653 103.08 50.0527 103.7C50.0434 103.732 50.0613 103.744 50.0762 103.741C50.094 103.753 50.1268 103.762 50.1866 103.75C51.4061 103.56 52.6107 103.373 53.8303 103.182C53.9051 103.168 54.1058 103.083 54.0679 102.968C53.8694 102.424 53.3144 100.6 52.3944 101.376Z" fill="#5B5B5D"/>
<path d="M58.9837 99.7618C58.6172 100.032 58.4547 100.554 58.364 101.047C58.1197 100.266 57.6143 98.9387 56.9231 99.8545C56.4068 100.552 56.2812 101.665 56.161 102.486C56.161 102.486 56.161 102.486 56.1788 102.497C56.1788 102.497 56.1816 102.512 56.2115 102.506C57.8284 102.285 59.4602 102.061 61.077 101.84C61.1069 101.834 61.2357 101.778 61.23 101.749C60.9304 101.163 60.0019 99.0127 58.9837 99.7618Z" fill="#5B5B5D"/>
<path d="M91.3088 92.5481C91.0498 92.8129 90.8943 93.211 90.7836 93.6003C90.7085 93.2929 90.5857 92.9795 90.3898 92.8488C90.1967 92.7329 90.0081 92.8001 89.905 92.9887C89.6506 93.4366 89.6391 94.098 89.5962 94.5969C89.5927 94.6589 89.7686 94.6861 89.8405 94.6569C90.6328 94.5033 91.4252 94.3498 92.2175 94.1963C92.2325 94.1934 92.2923 94.1818 92.2866 94.1523C92.235 93.8863 92.0855 91.7538 91.3088 92.5481Z" fill="#5B5B5D"/>
<path d="M97.7482 91.3467C97.3306 91.6729 97.0427 92.1885 96.8118 92.6778C96.6683 92.3377 96.5099 92.0005 96.2974 91.7044C96.1912 91.5564 96.0464 91.3698 95.8648 91.313C95.5521 91.2203 95.3053 91.4674 95.1838 91.7209C94.8441 92.3692 94.7894 93.2077 94.7416 93.9221C94.7445 93.9368 94.7445 93.9368 94.7474 93.9516C94.7502 93.9664 94.7652 93.9635 94.8129 93.9696C94.8129 93.9696 94.8129 93.9696 94.8278 93.9667C96.0859 93.8149 97.3589 93.6602 98.6169 93.5085C98.6468 93.5027 98.7963 93.4737 98.7998 93.4117C98.7922 92.892 98.8781 90.4532 97.7482 91.3467Z" fill="#5B5B5D"/>
<path d="M26.4465 27.4243C26.4981 27.6903 29.9557 29.7644 35.3708 27.6114L26.4465 27.4243Z" fill="white"/>
</svg>
